<?xml version="1.0" standalone="no"?>
<!DOCTYPE svg PUBLIC "-//W3C//DTD SVG 20010904//EN"
 "http://www.w3.org/TR/2001/REC-SVG-20010904/DTD/svg10.dtd">
<svg version="1.0" xmlns="http://www.w3.org/2000/svg"
 width="512.000000pt" height="512.000000pt" viewBox="0 0 512.000000 512.000000"
 preserveAspectRatio="xMidYMid meet">

<g transform="translate(0.000000,512.000000) scale(0.100000,-0.100000)"
fill="#000000" stroke="none">
<path d="M2601 4784 c-88 -24 -168 -72 -231 -141 -58 -64 -59 -64 -87 -49 -46
23 -146 46 -205 46 -177 0 -353 -114 -429 -278 -29 -62 -37 -72 -54 -67 -11 4
-53 11 -93 18 -239 37 -481 -134 -532 -376 -7 -37 -10 -330 -8 -962 l3 -910
23 -58 c13 -31 119 -216 235 -410 l212 -352 5 -412 c5 -396 6 -413 26 -439 39
-53 71 -69 134 -69 63 0 95 16 134 69 21 27 21 38 21 484 l0 457 -235 390
-235 390 -3 316 -3 317 63 -15 c120 -29 253 -2 364 72 l54 35 60 -39 c90 -58
149 -75 260 -76 106 0 166 16 243 65 l47 29 32 -40 c68 -85 215 -175 327 -201
l49 -11 -73 -86 c-164 -194 -256 -375 -290 -570 -28 -155 -17 -223 44 -274 37
-31 86 -42 138 -32 49 9 110 69 116 115 3 19 10 72 16 117 28 219 202 465 500
703 115 92 136 125 128 197 -5 46 -42 104 -80 125 -15 9 -93 15 -252 18 l-230
5 -63 34 c-70 38 -101 70 -139 145 -23 45 -27 66 -31 174 l-4 122 590 -2 c579
-3 591 -3 618 -24 15 -11 37 -33 48 -48 21 -27 21 -40 24 -571 2 -452 0 -550
-12 -578 -8 -19 -149 -203 -314 -410 -214 -267 -303 -385 -307 -409 -3 -18 -5
-227 -3 -465 3 -418 4 -432 24 -459 39 -53 71 -69 134 -69 63 0 95 16 134 69
20 26 21 41 24 430 l3 402 280 349 c286 358 330 425 349 524 6 32 10 278 10
605 0 598 -1 609 -56 718 -35 70 -135 168 -206 202 l-58 28 0 282 c0 305 -5
348 -56 448 -60 118 -196 220 -331 249 -80 16 -187 6 -264 -25 l-62 -25 -58
63 c-119 130 -302 185 -468 140z m207 -331 c14 -10 35 -32 46 -47 20 -26 21
-42 24 -377 l3 -349 -161 0 -160 0 0 334 c0 213 4 345 11 363 14 37 47 72 84
89 40 19 119 12 153 -13z m-640 -160 c14 -10 35 -32 46 -47 21 -27 21 -38 21
-565 l0 -538 -29 -37 c-68 -90 -190 -86 -260 8 -20 27 -21 40 -24 539 -2 282
0 526 3 544 7 40 49 91 90 109 40 19 120 12 153 -13z m1280 0 c14 -10 35 -32
46 -47 20 -26 21 -43 24 -297 l3 -269 -161 0 -160 0 0 254 c0 156 4 266 11
283 14 37 47 72 84 89 40 19 119 12 153 -13z m-1920 -320 c14 -10 35 -32 46
-47 20 -27 21 -39 21 -405 l0 -378 -29 -37 c-68 -90 -190 -86 -260 8 -20 26
-21 42 -24 379 -2 194 0 366 3 384 7 40 49 91 90 109 40 19 120 12 153 -13z"/>
</g>
</svg>
